<svg width="20486" height="7978" viewBox="0 0 20486 7978" fill="none" xmlns="http://www.w3.org/2000/svg">
<path d="M296.742 1909.73H1665.57C2150.58 1909.73 2551.69 2007.42 2868.9 2202.8C3188.41 2395.89 3427.46 2663.68 3586.07 3006.17C3744.67 3348.67 3823.98 3740.58 3823.98 4181.92C3823.98 4625.55 3744.67 5018.61 3586.07 5361.11C3427.46 5703.6 3188.41 5972.54 2868.9 6167.92C2551.69 6363.31 2150.58 6461 1665.57 6461H296.742V1909.73ZM1324.23 2823.43V5547.3H1572.48C1832.22 5547.3 2047.14 5488.68 2217.24 5371.45C2387.34 5251.92 2514.91 5089.87 2599.96 4885.29C2687.31 4678.42 2730.98 4446.26 2730.98 4188.81C2730.98 3929.07 2688.46 3696.91 2603.41 3492.33C2520.66 3285.45 2393.08 3122.25 2220.69 3002.72C2048.29 2883.2 1832.22 2823.43 1572.48 2823.43H1324.23ZM4465.88 6461V3630.25H5514.05V6461H4465.88ZM5003.76 3047.55C4838.26 3047.55 4698.04 2990.08 4583.11 2875.15C4468.18 2757.92 4410.72 2618.85 4410.72 2457.95C4410.72 2297.05 4468.18 2157.98 4583.11 2040.75C4700.34 1921.22 4840.56 1861.46 5003.76 1861.46C5111.8 1861.46 5210.64 1889.04 5300.28 1944.21C5389.93 1997.08 5462.34 2068.33 5517.5 2157.98C5572.67 2247.63 5600.25 2347.62 5600.25 2457.95C5600.25 2618.85 5541.64 2757.92 5424.41 2875.15C5307.18 2990.08 5166.96 3047.55 5003.76 3047.55ZM10128.9 3547.5C10342.7 3547.5 10531.2 3592.32 10694.4 3681.97C10857.6 3769.31 10985.1 3904.93 11077.1 4088.82C11171.3 4272.71 11218.4 4509.47 11218.4 4799.1V6461H10187.5V4957.7C10187.5 4760.02 10157.6 4600.27 10097.9 4478.44C10038.1 4356.61 9919.72 4295.7 9742.73 4295.7C9636.99 4295.7 9543.9 4323.28 9463.44 4378.45C9382.99 4433.62 9320.93 4510.62 9277.26 4609.46C9233.58 4706 9211.75 4822.08 9211.75 4957.7V6461H8249.77V4957.7C8249.77 4760.02 8216.44 4600.27 8149.78 4478.44C8085.42 4356.61 7970.49 4295.7 7804.99 4295.7C7699.25 4295.7 7606.16 4323.28 7525.71 4378.45C7445.25 4431.32 7383.19 4507.17 7339.52 4606.01C7298.14 4702.55 7277.46 4819.78 7277.46 4957.7V6461H6236.18V3630.25H7277.46V4033.66C7305.04 3962.4 7364.8 3889.99 7456.75 3816.44C7550.99 3740.58 7667.07 3677.37 7804.99 3626.8C7942.91 3573.93 8088.87 3547.5 8242.88 3547.5C8410.68 3547.5 8550.89 3572.78 8663.52 3623.35C8776.16 3671.62 8868.1 3737.13 8939.36 3819.88C9012.91 3902.63 9071.53 3992.28 9115.2 4088.82C9147.38 4006.07 9210.6 3923.32 9304.84 3840.57C9401.38 3755.52 9520.91 3685.41 9663.42 3630.25C9808.24 3575.08 9963.39 3547.5 10128.9 3547.5ZM14021.9 6461V6002.42C14001.2 6048.4 13948.4 6115.06 13863.3 6202.4C13780.6 6289.75 13670.2 6369.05 13532.3 6440.31C13394.4 6509.27 13233.5 6543.75 13049.6 6543.75C12773.8 6543.75 12532.4 6477.09 12325.5 6343.77C12118.7 6208.15 11957.8 6027.71 11842.8 5802.44C11727.9 5574.88 11670.4 5323.18 11670.4 5047.35C11670.4 4771.51 11727.9 4520.96 11842.8 4295.7C11957.8 4068.13 12118.7 3886.54 12325.5 3750.93C12532.4 3615.31 12773.8 3547.5 13049.6 3547.5C13226.6 3547.5 13381.8 3576.23 13515.1 3633.7C13648.4 3688.86 13756.4 3755.52 13839.2 3833.68C13921.9 3909.53 13979.4 3979.64 14011.6 4044V3630.25H15052.9V6461H14021.9ZM12697.9 5047.35C12697.9 5176.07 12727.8 5292.15 12787.6 5395.59C12847.3 5496.73 12926.6 5576.03 13025.5 5633.5C13126.6 5690.96 13238.1 5719.69 13359.9 5719.69C13486.4 5719.69 13597.8 5690.96 13694.4 5633.5C13790.9 5576.03 13866.8 5496.73 13921.9 5395.59C13979.4 5292.15 14008.1 5176.07 14008.1 5047.35C14008.1 4918.62 13979.4 4803.69 13921.9 4702.55C13866.8 4599.12 13790.9 4518.66 13694.4 4461.2C13597.8 4401.43 13486.4 4371.55 13359.9 4371.55C13238.1 4371.55 13126.6 4401.43 13025.5 4461.2C12926.6 4518.66 12847.3 4599.12 12787.6 4702.55C12727.8 4803.69 12697.9 4918.62 12697.9 5047.35ZM16986.8 3547.5C17173 3547.5 17343.1 3563.59 17497.1 3595.77C17651.1 3625.65 17779.9 3660.13 17883.3 3699.21C17989 3738.28 18056.8 3770.46 18086.7 3795.75L17745.4 4412.93C17701.7 4380.75 17620.1 4339.37 17500.6 4288.8C17383.3 4238.23 17252.3 4212.95 17107.5 4212.95C16997.2 4212.95 16904.1 4230.19 16828.2 4264.67C16752.4 4296.85 16714.4 4348.57 16714.4 4419.82C16714.4 4491.08 16755.8 4548.55 16838.6 4592.22C16923.6 4633.6 17045.4 4670.37 17204 4702.55C17342 4730.14 17482.2 4773.81 17624.7 4833.58C17767.2 4893.34 17885.6 4981.84 17979.8 5099.07C18076.4 5214 18124.6 5368 18124.6 5561.09C18124.6 5758.77 18082.1 5921.97 17997.1 6050.7C17912 6179.42 17799.4 6279.41 17659.2 6350.67C17519 6421.92 17367.3 6471.34 17204 6498.93C17040.8 6528.81 16882.2 6543.75 16728.2 6543.75C16512.2 6543.75 16323.7 6524.21 16162.8 6485.13C16004.2 6446.06 15875.4 6401.23 15776.6 6350.67C15677.8 6300.1 15608.8 6259.87 15569.7 6229.99L15907.6 5540.4C15967.4 5590.97 16065.1 5648.44 16200.7 5712.8C16336.3 5774.86 16480 5805.89 16631.7 5805.89C16778.8 5805.89 16892.6 5784.06 16973 5740.38C17053.5 5696.71 17093.7 5639.24 17093.7 5567.98C17093.7 5510.52 17074.2 5464.55 17035.1 5430.07C16996 5395.59 16940.9 5365.71 16869.6 5340.42C16798.3 5315.14 16712.1 5292.15 16611 5271.46C16519.1 5253.07 16421.4 5224.34 16317.9 5185.26C16214.5 5146.19 16116.8 5093.32 16024.9 5026.66C15932.9 4957.7 15858.2 4871.5 15800.7 4768.06C15743.3 4664.63 15714.5 4539.35 15714.5 4392.24C15714.5 4203.75 15775.5 4047.45 15897.3 3923.32C16019.1 3799.2 16176.6 3706.1 16369.7 3644.04C16562.7 3579.68 16768.5 3547.5 16986.8 3547.5ZM19384.4 6543.75C19214.3 6543.75 19067.2 6482.84 18943.1 6361.01C18821.3 6236.88 18760.4 6089.77 18760.4 5919.67C18760.4 5744.98 18821.3 5596.72 18943.1 5474.89C19067.2 5350.77 19214.3 5288.7 19384.4 5288.7C19559.1 5288.7 19707.4 5350.77 19829.2 5474.89C19951 5596.72 20012 5744.98 20012 5919.67C20012 6089.77 19951 6236.88 19829.2 6361.01C19707.4 6482.84 19559.1 6543.75 19384.4 6543.75Z" fill="#6268D1"/>
<g clip-path="url(#clip0_19_394)">
<path d="M19165.6 2661.3L18303.8 4178.81C18295.1 4194.11 18283.1 4207.26 18268.7 4217.28C18254.2 4227.3 18237.7 4233.94 18220.4 4236.7C18203 4239.47 18185.2 4238.28 18168.4 4233.24C18151.5 4228.2 18136 4219.43 18123 4207.57C18120.1 4204.89 17796.4 3918.92 17152.6 3787.83C16508.9 3656.73 16099.1 3793.33 16095.1 3794.75C16078.5 3800.49 16060.9 3802.44 16043.4 3800.45C16026 3798.46 16009.3 3792.58 15994.4 3783.25C15979.6 3773.91 15967 3761.37 15957.6 3746.53C15948.3 3731.69 15942.4 3714.94 15940.4 3697.52L15741.1 1963.49C15737 1928.76 15743.3 1893.61 15759.2 1862.46C15775.1 1831.3 15799.8 1805.54 15830.3 1788.4C15860.7 1771.26 15895.6 1763.52 15930.5 1766.14C15965.3 1768.76 15998.6 1781.64 16026.2 1803.15L16673.1 2308.35L17477.9 1431.6C17498.5 1409.12 17524.7 1392.37 17553.7 1382.96C17582.8 1373.55 17613.8 1371.81 17643.7 1377.9C17673.6 1384 17701.5 1397.72 17724.5 1417.74C17747.6 1437.77 17765.1 1463.41 17775.3 1492.19L18173.2 2613.82L18966.4 2401.89C19000.2 2392.86 19035.9 2394.05 19069.1 2405.32C19102.2 2416.59 19131.3 2437.42 19152.6 2465.2C19173.9 2492.97 19186.5 2526.43 19188.8 2561.36C19191.1 2596.29 19183 2631.12 19165.5 2661.45L19165.6 2661.3Z" fill="black"/>
<path d="M18952.4 2719.23L18102.5 4215.78C18094 4230.87 18082.1 4243.83 18067.9 4253.72C18053.6 4263.6 18037.3 4270.15 18020.2 4272.87C18003.1 4275.6 17985.5 4274.43 17968.9 4269.46C17952.3 4264.49 17937 4255.83 17924.2 4244.15C17921.4 4241.5 17602.1 3959.48 16967.2 3830.19C16332.4 3700.91 15928.2 3835.62 15924.3 3837.02C15907.9 3842.68 15890.5 3844.61 15873.3 3842.64C15856.1 3840.68 15839.6 3834.88 15825 3825.68C15810.3 3816.47 15798 3804.1 15788.7 3789.47C15779.5 3774.83 15773.7 3758.32 15771.7 3741.13L15575.2 2031.05C15571.2 1996.8 15577.4 1962.13 15593 1931.41C15608.7 1900.69 15633 1875.27 15663.1 1858.37C15693.2 1841.47 15727.5 1833.83 15761.9 1836.42C15796.3 1839.01 15829.1 1851.71 15856.3 1872.92L16494.3 2371.14L17287.9 1506.51C17308.3 1484.34 17334.1 1467.81 17362.8 1458.53C17391.4 1449.25 17422 1447.53 17451.5 1453.55C17481 1459.56 17508.5 1473.09 17531.2 1492.84C17554 1512.58 17571.2 1537.87 17581.3 1566.25L17973.7 2672.4L18755.9 2463.4C18789.3 2454.49 18824.5 2455.67 18857.2 2466.78C18889.9 2477.89 18918.6 2498.44 18939.6 2525.83C18960.6 2553.21 18973 2586.22 18975.3 2620.66C18977.6 2655.11 18969.6 2689.46 18952.3 2719.37L18952.4 2719.23Z" fill="#F6BE6A"/>
<path d="M18188.4 3548.86C18178 3546.94 18173.7 3540.77 18175.6 3530.36C18189.1 3457.44 18257.5 3312.53 18380.9 3095.63C18502.5 2881.09 18593.3 2746.35 18653.2 2691.42C18674.7 2669.8 18698.5 2661.39 18724.5 2666.18C18749.3 2670.74 18759.8 2682.78 18756.2 2702.31C18754.6 2711.43 18748.7 2721.12 18738.8 2731.4C18652 2829.85 18558.4 2950.61 18458 3093.67C18401.8 3172.17 18354.3 3243.53 18315.6 3307.75C18278.1 3372.2 18248 3429.92 18225.1 3480.91C18222.6 3487.18 18219.8 3495.4 18216.6 3505.58C18213.6 3514.46 18209.6 3525.16 18204.6 3537.71C18201.6 3546.58 18196.2 3550.3 18188.4 3548.86ZM18032.3 3859.36C18021.8 3857.44 18013.5 3847.83 18007.3 3830.53C18002.3 3813.46 18000.8 3799.72 18002.8 3789.31C18007.1 3765.87 18031 3745.38 18074.7 3727.83C18114.1 3710.87 18146.2 3704.66 18171 3709.22C18173.6 3709.7 18175.4 3710.71 18176.5 3712.25L18175.8 3716.16C18174.3 3723.97 18165.6 3738.52 18149.5 3759.8L18117.1 3804.31C18110.8 3816.61 18098.3 3829.79 18079.5 3843.84C18061 3856.58 18045.3 3861.76 18032.3 3859.36Z" fill="white"/>
<path d="M16794.1 3558.87C16804 3575.5 16808.9 3589.2 16808.8 3599.97L16808.8 3606.19C16806.2 3616.95 16800.4 3624.37 16791.2 3628.46C16785.4 3630.08 16778.8 3630.87 16771.3 3630.83L16760.1 3630.76C16747.7 3628.2 16737.8 3623.58 16730.4 3616.91C16723.8 3610.24 16720.5 3602.35 16720.6 3593.23C16720.6 3591.58 16721 3590.33 16721.8 3589.51C16722.7 3577.92 16731.5 3565.12 16748.2 3551.13C16751.5 3550.33 16754.4 3549.93 16756.9 3549.94C16763.5 3549.98 16768.9 3551.67 16773 3555.01C16777.1 3557.52 16782.5 3558.8 16789.2 3558.84L16794.1 3558.87ZM15921 3653.11C15917.7 3644.8 15916.1 3637.33 15916.1 3630.7C15916.2 3625.73 15917.4 3621.6 15919.9 3618.3C15924.1 3609.21 15931.6 3601.79 15942.4 3596.06C15952.4 3590.32 15964 3585.83 15977.3 3582.59C15989.8 3579.35 16001.4 3575.69 16012.2 3571.61C16047.9 3557.74 16088.6 3545.96 16134.2 3536.29C16179.9 3526.62 16227.1 3519.86 16276 3516C16316.7 3512.93 16357.7 3511.52 16399.1 3511.77L16424 3511.91C16472.9 3513.03 16518.4 3517.45 16560.6 3525.16C16570.5 3535.99 16575.4 3547.62 16575.3 3560.05L16575.3 3565.02C16573.6 3579.1 16566.1 3589 16552.8 3594.72C16547.8 3597.18 16542.4 3598.39 16536.6 3598.35C16530.8 3598.32 16524.6 3597.45 16518 3595.76C16503.9 3591.53 16489 3588.54 16473.3 3586.79C16455 3585.02 16434.7 3584.07 16412.4 3583.94L16390 3583.81C16358.5 3584.45 16332.4 3585.12 16311.7 3585.83C16294.3 3585.72 16274.8 3586.02 16253.2 3586.72C16232.5 3588.25 16211.4 3590.61 16189.8 3593.8C16168.2 3596.99 16147.1 3600.59 16126.4 3604.61C16105.6 3609.46 16086.9 3615.15 16070.3 3621.68C16056.2 3626.57 16042.5 3633.11 16029.2 3641.32C16016.7 3649.53 16004.6 3656.09 15993 3661C15981.4 3666.73 15969.8 3669.56 15958.2 3669.49C15945.7 3669.41 15933.3 3663.95 15921 3653.11Z" fill="white"/>
</g>
<defs>
<clipPath id="clip0_19_394">
<rect width="3747.38" height="3747.38" fill="white" transform="translate(15877.8 659.987) rotate(11.5104)"/>
</clipPath>
</defs>
</svg>
